<?xml version="1.0" encoding="utf-8"?>
<!-- Generator: Adobe Illustrator 26.5.3, SVG Export Plug-In . SVG Version: 6.00 Build 0)  -->
<svg version="1.1" id="レイヤー_1" xmlns="http://www.w3.org/2000/svg" xmlns:xlink="http://www.w3.org/1999/xlink" x="0px"
	 y="0px" viewBox="0 0 212 26" style="enable-background:new 0 0 212 26;" xml:space="preserve">
<style type="text/css">
	.st0{fill:#C4251D;}
	.st1{enable-background:new    ;}
</style>
<rect x="7.16" y="2.89" class="st0" width="5.9" height="20.23"/>
<g class="st1">
	<path d="M26.32,16.89v3.12h-1.28v-2.88c-1.47,0.24-2.87,0.48-3.99,0.69l-0.3-1.39c0.29-0.03,0.61-0.08,0.94-0.13V7.32h-0.78V5.98
		h6.03v1.34h-0.62v8.26l1.17-0.19l0.1,1.28L26.32,16.89z M23.03,7.32v1.99h2.02V7.32H23.03z M23.03,12.55h2.02v-2.02h-2.02V12.55z
		 M23.03,16.09c0.64-0.1,1.33-0.21,2.02-0.32v-1.98h-2.02V16.09z M31.6,13.92c0.67,2.19,2.03,4.02,3.99,4.85
		c-0.34,0.27-0.77,0.85-0.98,1.22c-1.6-0.8-2.79-2.19-3.6-3.97c-0.56,1.44-1.6,2.91-3.47,4.15c-0.22-0.32-0.74-0.8-1.1-1.06
		c2.5-1.54,3.35-3.49,3.62-5.19h-2.99v-1.34h3.12c0.02-0.22,0.02-0.45,0.02-0.64V9.96h-2.77V8.6h1.94c-0.3-0.69-0.93-1.7-1.55-2.43
		l1.22-0.59c0.64,0.74,1.3,1.7,1.58,2.37L29.4,8.6h1.94c0.56-0.85,1.2-2.1,1.55-3.01l1.52,0.42c-0.5,0.9-1.06,1.84-1.55,2.59h2v1.36
		H31.7v2c0,0.19,0,0.4-0.02,0.61h3.7v1.34H31.6z"/>
	<path d="M41.95,15.72c-0.94,1.26-2.35,2.56-3.54,3.39c-0.29-0.29-0.91-0.77-1.3-0.99c1.23-0.72,2.53-1.84,3.33-2.93L41.95,15.72z
		 M45.01,14.22v4.02c0,0.77-0.18,1.18-0.77,1.41c-0.58,0.22-1.42,0.24-2.59,0.24c-0.08-0.42-0.32-1.06-0.56-1.46
		c0.9,0.05,1.81,0.05,2.08,0.03c0.26-0.02,0.32-0.06,0.32-0.26v-3.87c-4.05,0.32-4.71,0.42-5.17,0.59
		c-0.06-0.26-0.29-0.94-0.45-1.34c0.54-0.08,1.23-0.37,2.21-0.86c0.53-0.24,1.55-0.78,2.79-1.54c-2.91,0.19-3.43,0.27-3.76,0.4
		c-0.05-0.29-0.27-0.96-0.42-1.31c0.34-0.05,0.7-0.29,1.18-0.61c0.37-0.26,1.39-1.04,2.35-2c-1.39,0.11-2.75,0.19-4.05,0.24
		c-0.03-0.37-0.21-0.96-0.37-1.3c3.86-0.18,8.39-0.59,11-1.22l1.07,1.22c-1.57,0.37-3.54,0.67-5.59,0.88
		c-0.96,0.96-2,1.86-3.07,2.62l3.59-0.19c0.82-0.56,1.65-1.17,2.4-1.79l1.1,0.96c-2.13,1.65-4.42,3.04-6.66,4.13l6.05-0.4
		c-0.38-0.4-0.75-0.78-1.12-1.14l1.14-0.59c1.2,1.1,2.53,2.58,3.17,3.57l-1.17,0.72c-0.26-0.42-0.61-0.91-1.06-1.42L45.01,14.22z
		 M47.38,15.12c1.26,0.91,2.88,2.24,3.71,3.14l-1.3,0.88c-0.75-0.88-2.34-2.26-3.62-3.23L47.38,15.12z"/>
	<path d="M59.03,9.43c-0.05,0.75-0.1,1.52-0.19,2.27h6.8c0,0-0.02,0.46-0.06,0.67c-0.3,4.42-0.61,6.18-1.25,6.82
		c-0.43,0.45-0.85,0.58-1.52,0.64c-0.59,0.05-1.63,0.03-2.71-0.03c-0.02-0.43-0.22-1.04-0.53-1.46c1.14,0.1,2.23,0.11,2.67,0.11
		c0.35,0,0.56-0.03,0.77-0.19c0.45-0.38,0.74-1.86,0.99-5.12h-5.39c-0.51,2.75-1.68,5.33-4.64,6.93c-0.22-0.4-0.69-0.91-1.09-1.22
		c3.97-2.03,4.34-5.91,4.5-9.43h-4.19V7.98h6.85c-0.21-0.64-0.64-1.55-1.01-2.24l1.46-0.54c0.42,0.72,0.91,1.68,1.14,2.32
		l-1.07,0.46h6.58v1.46H59.03z"/>
	<path d="M78.74,9.62c0.35,5.04,1.47,8.85,2.87,8.85c0.38,0,0.58-0.86,0.67-2.95c0.34,0.35,0.9,0.71,1.31,0.85
		c-0.26,2.88-0.78,3.67-2.11,3.67c-2.64,0-3.91-4.66-4.31-10.42h-8.12V8.17h8.02c-0.03-0.91-0.06-1.84-0.06-2.77h1.6
		c-0.02,0.93,0,1.87,0.03,2.77h4.59v1.46H78.74z M73.78,17.18c1.06-0.19,2.14-0.42,3.22-0.64l0.11,1.34
		c-2.66,0.61-5.52,1.23-7.57,1.68l-0.43-1.5c0.86-0.14,1.97-0.35,3.19-0.58v-4.29h-2.66v-1.44h6.95v1.44h-2.8V17.18z M80.45,5.4
		c0.78,0.51,1.76,1.3,2.22,1.84l-1.04,0.93c-0.45-0.56-1.38-1.39-2.16-1.95L80.45,5.4z"/>
</g>
</svg>
