<?xml version="1.0" encoding="utf-8"?>
<!-- Generator: Adobe Illustrator 26.5.3, SVG Export Plug-In . SVG Version: 6.00 Build 0)  -->
<svg version="1.1" id="レイヤー_1" xmlns="http://www.w3.org/2000/svg" xmlns:xlink="http://www.w3.org/1999/xlink" x="0px"
	 y="0px" viewBox="0 0 212 26" style="enable-background:new 0 0 212 26;" xml:space="preserve">
<style type="text/css">
	.st0{fill:#C4251D;}
	.st1{enable-background:new    ;}
</style>
<rect x="7.16" y="2.89" class="st0" width="5.9" height="20.23"/>
<g class="st1">
	<path d="M22.8,15.8v1.44h-1.38v-11h5.33v9.56H22.8z M22.8,7.61v2.69h2.58V7.61H22.8z M25.38,14.43v-2.8H22.8v2.8H25.38z M35,18.19
		c0,0.83-0.21,1.28-0.75,1.52c-0.56,0.24-1.44,0.27-2.79,0.27c-0.08-0.4-0.32-1.06-0.54-1.44c0.96,0.03,1.94,0.02,2.22,0.02
		c0.27-0.02,0.38-0.11,0.38-0.38v-3.2h-4.29c-0.37,1.89-1.2,3.79-3.01,5.15c-0.21-0.3-0.78-0.82-1.1-1.02
		c2.67-2,2.95-4.99,2.95-7.44V5.98H35V18.19z M33.53,13.61v-2.47h-4v0.53c0,0.61-0.02,1.26-0.08,1.94H33.53z M29.52,7.35v2.43h4
		V7.35H29.52z"/>
	<path d="M40.66,14.41c-0.16-0.46-0.46-1.22-0.78-1.89v7.49h-1.31v-5.91c-0.37,1.18-0.78,2.27-1.23,3.04
		c-0.16-0.4-0.5-0.96-0.74-1.3c0.83-1.38,1.58-3.83,1.94-5.89h-1.55V8.62h1.58V5.34h1.31v3.28h1.3v1.34h-1.3v0.46
		c0.35,0.54,1.36,2.34,1.58,2.77L40.66,14.41z M44.98,17.39c-0.06-0.24-0.14-0.54-0.27-0.86c-2.5,1.52-2.88,1.84-3.11,2.13
		c-0.13-0.27-0.48-0.77-0.72-0.99c0.26-0.24,0.69-0.77,0.69-1.5V6.18h3.89v6.83h-2.72v3.36l1.58-0.86
		c-0.21-0.48-0.42-0.98-0.64-1.39l0.99-0.45c0.53,1.02,1.14,2.38,1.36,3.2L44.98,17.39z M42.74,7.38v1.63h1.62V7.38H42.74z
		 M44.36,11.82v-1.71h-1.62v1.71H44.36z M50.1,18.65c0.13,0,0.22-0.03,0.29-0.08c0.06-0.06,0.13-0.21,0.16-0.37
		c0.03-0.29,0.05-0.94,0.05-1.7c0.19,0.16,0.54,0.35,0.82,0.43c-0.02,0.78-0.06,1.7-0.14,2.02c-0.1,0.32-0.22,0.53-0.42,0.67
		c-0.19,0.11-0.48,0.19-0.74,0.19h-0.69c-0.34,0-0.66-0.08-0.86-0.29c-0.24-0.21-0.3-0.45-0.3-1.22v-2.64
		c-0.62,1.54-1.52,3.04-2.8,4.4c-0.24-0.22-0.72-0.58-1.07-0.74c1.94-1.95,2.96-4.27,3.51-6.48h-0.62c-0.56,0-1.04,0.08-1.18,0.21
		c-0.08-0.3-0.34-0.85-0.46-1.09c0.21-0.05,0.29-0.14,0.4-0.43c0.13-0.35,0.45-2.53,0.56-3.23h1.15c-0.13,0.69-0.37,2.26-0.56,3.31
		h0.98c0.27-1.55,0.34-2.99,0.35-4.19h-2.43V6.15h5.04v1.28h-1.44c-0.02,1.2-0.08,2.64-0.3,4.19h1.97l-0.02,1.23h-2.19
		c-0.06,0.27-0.13,0.51-0.19,0.78h0.46v4.66c0,0.11,0.02,0.21,0.08,0.26c0.06,0.06,0.16,0.1,0.26,0.1H50.1z"/>
	<path d="M61.04,5.59c-0.08,0.13-0.18,0.22-0.27,0.35c1.6,1.44,4.39,2.9,6.75,3.58c-0.34,0.29-0.8,0.88-1.02,1.25
		c-2.21-0.77-4.79-2.26-6.56-3.86c-1.7,1.76-4.03,3.12-6.39,4.02c-0.18-0.34-0.61-1.02-0.86-1.31c2.8-0.91,5.52-2.5,6.98-4.56
		L61.04,5.59z M52.77,18.6c0.69-1.02,1.25-2.61,1.55-3.92l1.31,0.45c-0.35,1.33-0.85,3.06-1.54,4.15L52.77,18.6z M65,11.43
		c-0.72,1.17-2,2.56-3.04,3.41c-0.3-0.22-0.78-0.54-1.12-0.74c0.66-0.51,1.38-1.26,1.94-1.97h-7.83v-1.28h8.84l0.24-0.05L65,11.43z
		 M62.1,18.29c0.8,0,0.93-0.26,1.01-1.86c0.34,0.24,0.94,0.46,1.34,0.54c-0.19,2.11-0.62,2.64-2.23,2.64h-3.36
		c-1.97,0-2.46-0.42-2.46-1.89v-3.14h1.47v3.12c0,0.5,0.16,0.58,1.1,0.58H62.1z M58.95,13.1c1.02,0.83,2.27,2.02,2.83,2.88
		l-1.18,0.87c-0.51-0.83-1.71-2.08-2.75-2.96L58.95,13.1z M60.72,10.76c-0.43-0.51-1.36-1.23-2.16-1.7l0.9-0.83
		c0.8,0.43,1.76,1.09,2.22,1.62L60.72,10.76z M65.14,14.49c0.9,1.22,1.92,2.87,2.31,3.95l-1.34,0.59c-0.37-1.09-1.31-2.79-2.19-4.05
		L65.14,14.49z"/>
</g>
</svg>
