<?xml version="1.0" encoding="utf-8"?>
<!-- Generator: Adobe Illustrator 26.5.3, SVG Export Plug-In . SVG Version: 6.00 Build 0)  -->
<svg version="1.1" id="レイヤー_1" xmlns="http://www.w3.org/2000/svg" xmlns:xlink="http://www.w3.org/1999/xlink" x="0px"
	 y="0px" viewBox="0 0 212 26" style="enable-background:new 0 0 212 26;" xml:space="preserve">
<style type="text/css">
	.st0{fill:#C4251D;}
	.st1{enable-background:new    ;}
</style>
<rect x="7.16" y="2.89" class="st0" width="5.9" height="20.23"/>
<g class="st1">
	<path d="M25.94,5.83c-0.43,1.12-0.98,2.27-1.58,3.34v10.8h-1.5v-8.45c-0.42,0.58-0.86,1.1-1.31,1.57c-0.14-0.37-0.58-1.2-0.83-1.54
		c1.52-1.5,2.95-3.84,3.81-6.18L25.94,5.83z M30.77,9.37v2.03h4.35v1.36h-4.35v2.13h4.58v1.39h-4.58V20h-1.52V9.37h-0.9
		c-0.67,1.25-1.41,2.37-2.18,3.22c-0.24-0.26-0.82-0.79-1.15-1.01c1.41-1.47,2.69-3.78,3.46-6.08l1.42,0.38
		c-0.26,0.69-0.53,1.39-0.83,2.06h6.43v1.42H30.77z"/>
	<path d="M37.46,13h5.79v6.9h-1.47v-0.72h-2.91v0.83h-1.41V13z M38.87,14.43v3.33h2.91v-3.33H38.87z M48.66,11.45h-8.95V5.99h8.95
		V11.45z M47.14,7.42h-6v2.61h6V7.42z M50.9,13v6.93h-1.49v-0.75h-3.17v0.83h-1.42V13H50.9z M49.41,17.76v-3.33h-3.17v3.33H49.41z"
		/>
	<path d="M55.95,15.05c-0.64-0.45-1.97-1.17-2.93-1.63l0.82-1.01c0.93,0.43,2.26,1.09,2.96,1.5L55.95,15.05z M56.5,7.99h-3.43V6.62
		h3.43V5.34h1.54v1.28h4.16V5.34h1.54v1.28h3.49v1.38h-3.49V9.4H62.2V7.99h-4.16V9.4H56.5V7.99z M53.34,18.75
		c1.06-0.91,2.61-2.51,3.87-3.99l0.83,1.14c-1.14,1.36-2.48,2.85-3.67,4.08L53.34,18.75z M54.83,9.5c0.9,0.46,2.21,1.18,2.9,1.63
		l-0.86,1.1c-0.66-0.45-1.95-1.25-2.88-1.79L54.83,9.5z M64.92,18.35c0.88,0,1.04-0.35,1.17-2.08c0.37,0.26,0.99,0.5,1.41,0.61
		c-0.21,2.21-0.69,2.87-2.5,2.87h-3.68c-2.03,0-2.64-0.46-2.64-2.29v-7.39h7.43v3.97c0,0.75-0.16,1.18-0.77,1.39
		c-0.61,0.24-1.5,0.26-2.79,0.26c-0.08-0.43-0.34-1.04-0.58-1.41c1.02,0.03,2,0.03,2.27,0.02c0.29-0.02,0.37-0.06,0.37-0.27v-2.54
		h-4.4v5.97c0,0.77,0.18,0.91,1.22,0.91H64.92z"/>
	<path d="M72.69,5.74c-0.29,0.98-0.62,1.98-1.02,2.96V20h-1.39v-8.48c-0.3,0.51-0.61,0.96-0.93,1.38c-0.11-0.35-0.45-1.2-0.69-1.57
		c1.15-1.49,2.11-3.73,2.69-5.99L72.69,5.74z M72.91,6.14h5.47v1.39H75.8c-0.14,0.72-0.3,1.44-0.48,2.13h1.74l0.24-0.05l0.86,0.22
		c-0.5,5.03-2.03,8.39-4.51,10.18c-0.21-0.35-0.62-0.86-0.93-1.15c1.06-0.69,1.95-1.81,2.64-3.28c-0.45-0.43-1.02-0.93-1.52-1.33
		l0.8-1.02c0.4,0.29,0.86,0.66,1.28,0.99c0.32-0.98,0.58-2.03,0.75-3.2H74.9c-0.45,1.42-1.04,2.69-1.74,3.68
		c-0.22-0.24-0.78-0.74-1.09-0.94c1.1-1.49,1.86-3.76,2.32-6.23h-1.47V6.14z M80.29,16.06h-1.31V7.1h1.31V16.06z M82.92,5.43v12.68
		c0,0.86-0.19,1.28-0.7,1.5c-0.51,0.24-1.38,0.29-2.64,0.27c-0.06-0.38-0.27-1.04-0.46-1.44c0.91,0.03,1.79,0.03,2.08,0.03
		c0.24-0.02,0.35-0.1,0.35-0.37V5.43H82.92z"/>
</g>
</svg>
