<?xml version="1.0" encoding="utf-8"?>
<!-- Generator: Adobe Illustrator 26.5.3, SVG Export Plug-In . SVG Version: 6.00 Build 0)  -->
<svg version="1.1" id="レイヤー_1" xmlns="http://www.w3.org/2000/svg" xmlns:xlink="http://www.w3.org/1999/xlink" x="0px"
	 y="0px" viewBox="0 0 212 26" style="enable-background:new 0 0 212 26;" xml:space="preserve">
<style type="text/css">
	.st0{fill:#C4251D;}
	.st1{enable-background:new    ;}
</style>
<rect x="7.16" y="2.89" class="st0" width="5.9" height="20.23"/>
<g class="st1">
	<path d="M26.71,9.62c-0.75,4.21-2.54,7.28-4.79,8.92c-0.26-0.35-0.83-0.93-1.2-1.17c1.94-1.28,3.44-3.58,4.18-6.56h-3.65v-1.5h4.19
		l0.27-0.06L26.71,9.62z M34.41,9.18c-1.1,1.2-2.5,2.58-3.62,3.52c1.28,1.91,2.98,3.49,4.91,4.39c-0.35,0.3-0.86,0.91-1.1,1.36
		c-2.38-1.26-4.27-3.52-5.63-6.23v5.84c0,0.91-0.19,1.39-0.74,1.65c-0.54,0.27-1.39,0.34-2.64,0.34c-0.08-0.45-0.32-1.22-0.56-1.67
		c0.9,0.05,1.73,0.05,2,0.03c0.26,0,0.37-0.08,0.37-0.35V5.34h1.57v3.83c0.3,0.82,0.67,1.62,1.12,2.38
		c1.02-0.98,2.21-2.29,2.96-3.34L34.41,9.18z"/>
	<path d="M51.3,18.3v1.2H37.04v-1.2h6.31v-1.07h-4.5v-1.09h4.5v-0.88h1.47v0.88h4.77v1.09h-4.77v1.07H51.3z M37.12,13.85v-1.1h6.24
		v-0.82h-4.83v-1.01h4.83v-0.75h-4.67V5.99h10.96v4.18H44.8v0.75h5.06v1.01H44.8v0.82h6.35v1.1h-1.97c0.66,0.54,1.39,1.28,1.74,1.78
		l-1.2,0.56c-0.37-0.53-1.15-1.36-1.81-1.94l0.88-0.4h-2.83c0.34,0.45,0.67,1.06,0.85,1.46l-1.28,0.43
		c-0.14-0.43-0.5-1.09-0.83-1.55l1.12-0.34H37.12z M37.17,15.6c0.85-0.34,1.54-0.98,1.9-1.75l1.2,0.34c-0.4,0.9-1.1,1.73-2.08,2.18
		L37.17,15.6z M43.36,9.21V6.95h-3.3v2.26H43.36z M41.7,7.19c0.35,0.46,0.7,1.07,0.85,1.5l-0.96,0.37c-0.14-0.43-0.48-1.07-0.8-1.57
		L41.7,7.19z M42.82,13.93c0.21,0.46,0.45,1.1,0.53,1.49l-1.31,0.32c-0.06-0.43-0.27-1.07-0.48-1.55L42.82,13.93z M48.21,6.95H44.8
		v2.26h3.41V6.95z M45.51,8.83c0.3-0.48,0.67-1.22,0.88-1.68l1.07,0.34c-0.38,0.58-0.77,1.22-1.1,1.63L45.51,8.83z"/>
	<path d="M67.29,12.33c0,0-0.03,0.42-0.06,0.64c-0.24,3.17-0.48,4.48-0.99,4.99c-0.37,0.38-0.77,0.5-1.38,0.54
		c-0.51,0.03-1.47,0.03-2.46-0.02c-0.03-0.42-0.21-1.02-0.5-1.42c0.99,0.1,2,0.11,2.4,0.11c0.32,0,0.5-0.02,0.69-0.16
		c0.32-0.27,0.51-1.22,0.67-3.28h-5.51v6.23h-1.52v-6.23h-5.47v-1.41h5.47V9.48h-4.51V8.06h4.51V5.37h1.52v2.69h4.83v4.27H67.29z
		 M60.15,12.33h3.35V9.48h-3.35V12.33z M66.44,9c-0.66-0.62-2.03-1.62-3.07-2.29l0.86-0.99c1.02,0.61,2.43,1.55,3.14,2.14L66.44,9z"
		/>
	<path d="M82.84,6.33V7.7H69.47V6.33H82.84z M81.25,10.23h1.49v9.73h-1.49v-0.72H69.54v-8.92h1.52v7.52h10.2V10.23z M79.91,9.29
		v7.14h-7.6V9.29H79.91z M73.55,12.27h1.87v-1.75h-1.87V12.27z M73.55,15.21h1.87v-1.78h-1.87V15.21z M78.61,10.52h-1.89v1.75h1.89
		V10.52z M78.61,13.43h-1.89v1.78h1.89V13.43z"/>
</g>
</svg>
