<?xml version="1.0" encoding="utf-8"?>
<!-- Generator: Adobe Illustrator 26.5.3, SVG Export Plug-In . SVG Version: 6.00 Build 0)  -->
<svg version="1.1" id="レイヤー_1" xmlns="http://www.w3.org/2000/svg" xmlns:xlink="http://www.w3.org/1999/xlink" x="0px"
	 y="0px" viewBox="0 0 212 26" style="enable-background:new 0 0 212 26;" xml:space="preserve">
<style type="text/css">
	.st0{fill:#C4251D;}
	.st1{fill:#FFFFFF;}
	.st2{enable-background:new    ;}
</style>
<rect class="st0" width="212" height="26"/>
<rect x="7.16" y="2.89" class="st1" width="5.9" height="20.23"/>
<g class="st2">
	<path class="st1" d="M25.22,18.53c-0.24-0.37-0.61-0.82-1.01-1.26c-0.69,1.17-1.57,2.06-2.64,2.74c-0.21-0.35-0.58-0.9-0.88-1.17
		c1.01-0.56,1.84-1.41,2.48-2.62c-0.66-0.61-1.38-1.22-2.03-1.71c0.35-1.22,0.7-2.87,1.01-4.59h-1.15V8.54h1.38
		c0.16-1.12,0.3-2.19,0.38-3.19l1.31,0.06c-0.1,0.98-0.22,2.03-0.38,3.12h1.36l0.24-0.03l0.85,0.11c-0.14,3.09-0.56,5.46-1.28,7.28
		c0.58,0.56,1.06,1.1,1.39,1.57L25.22,18.53z M23.46,9.9c-0.26,1.46-0.53,2.88-0.82,4.1c0.37,0.29,0.74,0.58,1.1,0.91
		c0.5-1.36,0.82-3.04,0.98-5.01H23.46z M32.25,15.47c0.88,1.18,2.21,2.32,3.43,2.93c-0.34,0.27-0.8,0.79-1.06,1.18
		c-1.04-0.69-2.16-1.84-3.04-3.04V20h-1.44v-3.47c-0.9,1.3-2.1,2.45-3.31,3.14c-0.24-0.37-0.69-0.9-1.01-1.17
		c1.34-0.61,2.67-1.78,3.54-3.03h-2.96V14.2h3.75v-1.23h-2.4V8.26h-1.28V7h1.28V5.32h1.34V7h3.38V5.32h1.41V7h1.34v1.26h-1.34v4.71
		h-2.29v1.23h3.65v1.26H32.25z M29.08,8.26v1.18h3.38V8.26H29.08z M29.08,11.75h3.38v-1.18h-3.38V11.75z"/>
	<path class="st1" d="M41.38,5.8c-0.35,1.09-0.83,2.18-1.34,3.23v10.95h-1.42V11.5c-0.4,0.58-0.78,1.09-1.18,1.57
		c-0.14-0.35-0.58-1.17-0.83-1.5c1.38-1.5,2.62-3.84,3.39-6.16L41.38,5.8z M47.6,9.79c0.91,2.58,2.48,5.15,4.13,6.55
		c-0.37,0.27-0.86,0.78-1.14,1.18c-1.5-1.49-2.88-3.99-3.83-6.59v4.91h2.37v1.34h-2.37v2.74h-1.46v-2.74h-2.38v-1.34h2.38v-4.82
		c-0.98,2.62-2.37,5.04-3.94,6.55c-0.22-0.37-0.74-0.88-1.06-1.14c1.7-1.41,3.27-4.02,4.21-6.64h-3.51V8.38h4.29V5.4h1.46v2.98h4.58
		v1.41H47.6z"/>
	<path class="st1" d="M58.39,13.58l-1.82,0.51v4.18c0,0.83-0.19,1.25-0.7,1.47c-0.51,0.24-1.3,0.27-2.58,0.27
		c-0.06-0.38-0.24-1.02-0.46-1.42c0.83,0.03,1.65,0.03,1.87,0.02c0.27,0,0.35-0.08,0.35-0.35v-3.71c-0.72,0.21-1.39,0.38-2,0.54
		l-0.35-1.52c0.66-0.16,1.47-0.37,2.35-0.58v-3.1h-2.13V8.44h2.13v-3.1h1.52v3.1h1.68v1.44h-1.68v2.69c0.54-0.14,1.1-0.27,1.63-0.43
		L58.39,13.58z M67,11.59c-0.37,2-1.09,3.81-2.18,5.33c0.8,0.75,1.71,1.38,2.72,1.79C67.19,19,66.76,19.58,66.52,20
		c-0.99-0.5-1.87-1.14-2.66-1.92c-0.77,0.78-1.63,1.46-2.64,1.98c-0.21-0.34-0.58-0.75-0.91-1.04v0.96h-1.47V5.88h7.73
		c0,0-0.02,0.38-0.03,0.58c-0.08,2.24-0.24,3.19-0.59,3.55c-0.32,0.35-0.74,0.45-1.28,0.5c-0.53,0.03-1.5,0.02-2.53-0.03
		c-0.02-0.37-0.19-0.9-0.4-1.23c0.99,0.08,1.97,0.1,2.29,0.1c0.34,0,0.5-0.02,0.64-0.14c0.18-0.18,0.26-0.72,0.34-1.94h-4.69v4.08
		h5.47l0.27-0.05L67,11.59z M60.31,18.89c1.01-0.5,1.87-1.15,2.59-1.91c-0.96-1.25-1.71-2.71-2.27-4.31h-0.32V18.89z M62.05,12.68
		c0.43,1.14,1.04,2.19,1.78,3.14c0.66-0.95,1.12-2,1.44-3.14H62.05z"/>
	<path class="st1" d="M72.48,17.05c0.32,0.16,0.67,0.43,1.2,0.7c1.04,0.54,2.43,0.66,4.16,0.66c1.74,0,4.15-0.11,5.68-0.3
		c-0.18,0.37-0.38,1.04-0.42,1.44c-1.1,0.08-3.79,0.18-5.31,0.18c-1.87,0-3.25-0.19-4.39-0.78c-0.69-0.38-1.22-0.83-1.58-0.83
		c-0.54,0-1.36,0.88-2.14,1.83l-0.9-1.23c0.77-0.75,1.57-1.38,2.27-1.67v-4.67h-2.06v-1.38h3.49V17.05z M71.36,9.35
		c-0.45-0.74-1.42-1.87-2.26-2.69l1.15-0.74c0.83,0.77,1.84,1.86,2.3,2.59L71.36,9.35z M76.88,9.72c0.1-0.37,0.21-0.78,0.29-1.17
		h-4.02V7.34h2.45c-0.21-0.46-0.59-1.12-0.94-1.58l1.25-0.51c0.42,0.51,0.91,1.25,1.1,1.73L76.2,7.34h2.77
		c0.4-0.59,0.86-1.41,1.12-2l1.44,0.4c-0.37,0.54-0.74,1.12-1.09,1.6h2.8v1.22h-4.45c-0.18,0.42-0.34,0.82-0.51,1.17h3.71v7.55
		h-7.73V9.72H76.88z M80.52,10.81h-4.87v1.12h4.87V10.81z M80.52,12.92h-4.87v1.12h4.87V12.92z M80.52,15.05h-4.87v1.14h4.87V15.05z
		"/>
</g>
</svg>
