<?xml version="1.0" encoding="utf-8"?>
<!-- Generator: Adobe Illustrator 26.5.3, SVG Export Plug-In . SVG Version: 6.00 Build 0)  -->
<svg version="1.1" id="レイヤー_1" xmlns="http://www.w3.org/2000/svg" xmlns:xlink="http://www.w3.org/1999/xlink" x="0px"
	 y="0px" viewBox="0 0 212 26" style="enable-background:new 0 0 212 26;" xml:space="preserve">
<style type="text/css">
	.st0{fill:#C4251D;}
	.st1{enable-background:new    ;}
</style>
<rect x="7.16" y="2.89" class="st0" width="5.9" height="20.23"/>
<g class="st1">
	<path d="M26.58,18.33c0,0.72-0.13,1.17-0.58,1.41c-0.45,0.26-1.1,0.29-2.18,0.27c-0.03-0.37-0.22-1.06-0.4-1.42
		c0.66,0.03,1.3,0.02,1.5,0.02c0.19-0.02,0.27-0.08,0.27-0.3v-3.6h-2.16c-0.14,1.89-0.45,3.87-1.15,5.35
		c-0.26-0.22-0.86-0.56-1.22-0.71c1.06-2.21,1.14-5.39,1.14-7.73V5.9h4.77V18.33z M25.2,13.29v-2.35h-2.05v0.67
		c0,0.51,0,1.09-0.03,1.68H25.2z M23.15,7.27v2.27h2.05V7.27H23.15z M35.19,11.63c-0.38,2.15-1.1,3.91-2.06,5.33
		c0.74,0.8,1.58,1.47,2.55,1.92c-0.34,0.27-0.74,0.78-0.96,1.15c-0.91-0.5-1.73-1.17-2.43-1.97c-0.67,0.77-1.41,1.39-2.24,1.89
		c-0.19-0.34-0.56-0.82-0.86-1.07v1.14h-1.41V5.93h6.96V9c0,0.69-0.14,1.07-0.7,1.26c-0.56,0.21-1.41,0.21-2.59,0.21
		c-0.06-0.38-0.29-0.91-0.46-1.26c0.88,0.03,1.78,0.03,2,0.02c0.26,0,0.34-0.05,0.34-0.24V7.32h-4.13v4.05h4.91l0.24-0.05
		L35.19,11.63z M29.17,18.84c0.83-0.43,1.6-1.09,2.27-1.87c-0.85-1.23-1.5-2.67-1.98-4.24h-0.29V18.84z M30.72,12.73
		c0.37,1.12,0.88,2.16,1.52,3.09c0.56-0.91,1.02-1.94,1.34-3.09H30.72z"/>
	<path d="M50.12,7.45c-0.94,1.41-2.39,2.53-4.1,3.38c1.6,0.42,3.47,0.66,5.47,0.77c-0.32,0.32-0.66,0.93-0.83,1.31
		c-2.43-0.19-4.63-0.59-6.45-1.31c-2.08,0.77-4.42,1.23-6.71,1.5c-0.11-0.37-0.35-0.96-0.58-1.3c1.9-0.18,3.83-0.51,5.6-1.01
		c-0.8-0.46-1.49-1.01-2.1-1.65c-0.59,0.46-1.26,0.91-2.02,1.3c-0.18-0.34-0.59-0.9-0.9-1.12c2.24-1.1,3.78-2.64,4.59-4l1.52,0.3
		c-0.26,0.43-0.56,0.86-0.9,1.28h6.21l0.26-0.06L50.12,7.45z M50.12,14.16c0,0-0.05,0.42-0.08,0.61c-0.37,2.83-0.72,4.07-1.3,4.58
		c-0.4,0.35-0.8,0.45-1.46,0.48c-0.53,0.03-1.5,0.03-2.48-0.03c-0.02-0.38-0.22-0.93-0.48-1.3c1.02,0.1,2.1,0.11,2.51,0.11
		c0.35,0,0.54-0.02,0.72-0.16c0.37-0.29,0.66-1.18,0.93-3.01h-4.59c-1.04,2.48-2.96,3.78-5.97,4.56c-0.14-0.34-0.58-0.96-0.85-1.25
		c2.59-0.51,4.29-1.5,5.22-3.31h-4.15v-1.28h4.64c0.13-0.45,0.22-0.94,0.29-1.49l1.55,0.13c-0.08,0.48-0.18,0.94-0.3,1.36H50.12z
		 M41.41,8.34c0.66,0.77,1.62,1.39,2.8,1.89C45.6,9.67,46.82,9,47.73,8.17h-6.15L41.41,8.34z"/>
	<path d="M58.29,15.32c-1.86,0.67-3.81,1.34-5.31,1.84l-0.35-1.57c0.59-0.16,1.34-0.37,2.19-0.58V8.54h-1.94V7.13h5.14v1.41h-1.73
		v6.05l1.81-0.51L58.29,15.32z M63.38,14.19c0,2.13-0.83,4.42-5.3,5.81c-0.19-0.3-0.62-0.86-0.94-1.14
		c4.27-1.14,4.75-3.07,4.75-4.69v-3.3h1.49V14.19z M61.22,8.79c0.18-0.45,0.35-0.98,0.5-1.46h-3.44V5.99h9.14v1.34h-3.95
		c-0.24,0.51-0.46,1.02-0.7,1.46h3.71v7.41h-1.5v-6.08h-4.74v6.13h-1.44V8.79H61.22z M64.02,16.46c1.18,0.7,2.75,1.78,3.52,2.48
		l-0.99,1.02c-0.74-0.74-2.26-1.84-3.46-2.59L64.02,16.46z"/>
	<path d="M81.57,6.25V19.9h-1.57v-1.06H72.1v1.06h-1.5V6.25H81.57z M72.1,7.7v2.27h7.91V7.7H72.1z M72.1,11.39v2.31h7.91v-2.31H72.1
		z M80.01,17.39V15.1H72.1v2.29H80.01z"/>
</g>
</svg>
